<svg id="EOS-Logo_2022" xmlns="http://www.w3.org/2000/svg" viewBox="0 0 740.94803 423.88053"><defs><style>.cls-1{fill:#ea0029;}</style></defs><path class="cls-1" d="M565.68835,193.19059h-61.137c.272.271,7.065,14.944,38.041,29.074l19.563,8.966c12.228,5.706,23.368,9.782,23.368,22.281,0,16.303-15.488,20.379-25.813,20.379-17.118,0-32.063-8.967-44.834-26.357l-25.92434,19.103.11135.189c14.673,25.27,39.399,40.215,70.375,40.215,39.943,0,64.669-23.64,64.669-54.616,0-22.281-11.684-36.138-36.41-48.366Zm19.835-17.934c16.575,0,29.34606-12.77,29.34606-29.074a28.88771,28.88771,0,0,0-29.34606-29.345c-16.303,0-29.074,12.771-29.074,29.345a28.7643,28.7643,0,0,0,29.074,29.074m-396.732-12.117c-40.559,0-71.951,31.393-71.951,71.949,0,40.558,31.67,71.951,75.283,71.951,21.113,0,39.448-7.5,55.002-20.557l-15.554-25.558c-11.115,8.611-23.334,13.889-38.337,13.889-20.002,0-34.166-9.721-38.615-27.224h96.396a96.117,96.117,0,0,0,2.502-20.557c0-35.558-26.114-63.893-64.726-63.893m-34.172,58.062c4.168-17.225,16.947-27.78,32.781-27.78s29.446,10.277,29.724,27.78Zm222.109-104.363c-53.945,0-97.327,41.155-97.327,95.1,0,53.948,43.382,95.103,97.327,95.103s97.882-41.155,97.882-95.103c0-53.945-43.937-95.1-97.882-95.1m.278,155.443c-34.205,0-58.952-24.75-58.952-60.343,0-35.315,24.747-60.342,58.952-60.342,33.646,0,58.951,25.027,58.951,60.342,0,35.593-25.305,60.343-58.951,60.343"/></svg>